<?xml version="1.0" standalone="no"?>
<!DOCTYPE svg PUBLIC "-//W3C//DTD SVG 1.1//EN" "http://www.w3.org/Graphics/SVG/1.1/DTD/svg11.dtd">
<svg xmlns="http://www.w3.org/2000/svg" width="145" height="51" viewBox="0 0 145 51" fill="none">
<path d="M75.0099 39.3302C75.0099 41.7602 73.7399 42.9602 71.2099 42.9602H67.8199V35.7002H71.2099C73.7399 35.7002 75.0099 36.9002 75.0099 39.3302ZM71.27 41.7002C72.67 41.7002 73.36 40.9002 73.36 39.3402C73.36 37.7802 72.67 36.9802 71.27 36.9802H69.39V41.7102H71.27V41.7002Z" fill="white"/>
<path d="M79.08 35.7002V42.9602H77.5V35.7002H79.08Z" fill="white"/>
<path d="M85.94 36.9401C84.06 36.9401 83.2 37.6101 83.2 39.3101C83.2 41.0101 84.1 41.7301 85.94 41.7301C86.48 41.7301 86.93 41.6401 87.28 41.5601V39.9701H85.6799V38.7101H88.8699V41.7201C88.8699 42.2601 88.58 42.6401 88.08 42.7801C87.9 42.8301 86.8299 43.0601 85.7599 43.0601C82.9699 43.0601 81.5699 41.9001 81.5699 39.3201C81.5699 36.7401 82.93 35.6001 85.84 35.6001C87.04 35.6001 88.02 35.7501 88.58 35.9701V37.3501C87.99 37.1001 87.01 36.9401 85.95 36.9401H85.94Z" fill="white"/>
<path d="M93.06 35.7002V42.9602H91.48V35.7002H93.06Z" fill="white"/>
<path d="M102.28 36.9702H99.68V42.9602H98.1V36.9702H95.5V35.7002H102.29V36.9702H102.28Z" fill="white"/>
<path d="M107.19 35.6101C107.91 35.6101 108.29 35.9101 108.52 36.4801L111.24 42.9701H109.43L108.87 41.5201H105.49L104.93 42.9701H103.12L105.85 36.4901C106.09 35.9201 106.46 35.6101 107.19 35.6101ZM108.39 40.2601L107.32 37.4801C107.29 37.3801 107.23 37.3601 107.19 37.3601C107.15 37.3601 107.08 37.3801 107.05 37.4801L105.98 40.2601H108.4H108.39Z" fill="white"/>
<path d="M114.88 35.7002V41.0202C114.88 41.4202 115.15 41.6902 115.55 41.6902H119.25V42.9602H115.11C114 42.9602 113.3 42.1902 113.3 41.3002V35.7002H114.88Z" fill="white"/>
<path d="M51.62 24.2799L49.49 29.1799H44.1L53.1 8.52994C53.72 7.10994 55.13 6.18994 56.68 6.18994H57.94C59.49 6.18994 60.9 7.10994 61.52 8.52994L70.52 29.1799H65.13L63 24.2799H51.62ZM57.3 11.2399L53.62 19.6499H60.98L57.3 11.2399Z" fill="white"/>
<path d="M79.1899 20.0099V29.1799H73.7999V9.60992C73.7999 7.70992 75.3399 6.16992 77.2399 6.16992H93.3899V10.7999H79.1999V15.3299H91.4199V19.9999H79.1899V20.0099Z" fill="white"/>
<path d="M101.4 29.1799C100.17 29.1799 99.13 28.7499 98.28 27.8999C97.43 27.0499 97 26.0099 97 24.7799V10.5899C97 9.35994 97.43 8.31994 98.28 7.46994C99.13 6.61994 100.17 6.18994 101.4 6.18994H116.58V10.8199H103.37C103.09 10.8199 102.85 10.9199 102.66 11.1199C102.47 11.3199 102.38 11.5499 102.38 11.8099V15.3599H114.6V20.0299H102.38V23.5799C102.38 23.8399 102.47 24.0699 102.66 24.2699C102.84 24.4699 103.08 24.5699 103.37 24.5699H116.58V29.1999H101.4V29.1799Z" fill="white"/>
<path d="M137.44 6.17992C139.32 6.17992 140.93 6.84992 142.27 8.17992C143.6 9.51992 144.27 11.1399 144.27 13.0399V22.3099C144.27 24.2099 143.6 25.8399 142.27 27.1699C140.93 28.5099 139.32 29.1699 137.44 29.1699H121.04V6.16992H137.44V6.17992ZM138.92 21.0999V14.2699C138.92 13.3099 138.58 12.4899 137.9 11.8199C137.22 11.1499 136.41 10.8199 135.47 10.8199H126.43V24.5499H135.47C136.41 24.5499 137.22 24.2099 137.9 23.5499C138.58 22.8799 138.92 22.0699 138.92 21.0999Z" fill="white"/>
<path d="M31.57 7.48C29.46 2.93 24.87 0 19.85 0C14.83 0 10.24 2.94 8.13 7.48L0 25.03L8.3 42.88C10.38 47.36 14.91 50.25 19.85 50.25C24.79 50.25 29.32 47.35 31.4 42.88L39.69 25L31.57 7.48Z" fill="white"/>
<path d="M31.5799 11.1001L25.1399 25.0001L19.8599 36.4001L15.5999 27.2101L9.15991 41.1101L9.68992 42.2501C11.5299 46.2101 15.4999 48.7501 19.8699 48.7501C24.2399 48.7501 28.2099 46.2201 30.0499 42.2501L38.0399 25.0001L31.5999 11.1001H31.5799Z" fill="#E8B44C"/>
<path d="M30.6499 9.11001L30.1899 8.12001C28.3199 4.09001 24.2899 1.51001 19.8399 1.51001C15.3999 1.51001 11.3599 4.09001 9.4899 8.12001L1.6499 25.03L8.0999 38.91L19.8299 13.6L24.1899 23.02L30.5999 9.15001L30.6299 9.11001H30.6499Z" fill="#5A2187"/>
</svg>